PathFileType	4	(X/Y/Z)	pose_F01_0-96.trc
DataRate	CameraRate	NumFrames	NumMarkers	Units	OrigDataRate	OrigDataStartFrame	OrigNumFrames
30	30	6	21	m	30	72	96
Frame#	Time	CHip			RHip			RKnee			RAnkle			RBigToe			RSmallToe			RHeel			LHip			LKnee			LAnkle			LBigToe			LSmallToe			LHeel			Neck			Nose			RShoulder			RElbow			RWrist			LShoulder			LElbow			LWrist			
		X1	Y1	Z1	X2	Y2	Z2	X3	Y3	Z3	X4	Y4	Z4	X5	Y5	Z5	X6	Y6	Z6	X7	Y7	Z7	X8	Y8	Z8	X9	Y9	Z9	X10	Y10	Z10	X11	Y11	Z11	X12	Y12	Z12	X13	Y13	Z13	X14	Y14	Z14	X15	Y15	Z15	X16	Y16	Z16	X17	Y17	Z17	X18	Y18	Z18	X19	Y19	Z19	X20	Y20	Z20	X21	Y21	Z21	
72	2.4	-0.19170087273476313	1.8235313505550645	-0.5281654140081237	-0.20251808529834375	1.8217028743251782	-0.4720233853911645	-0.1926739435316663	1.6964560134169455	-0.46215804402042715													-0.17908152587524606	1.8248481796131706	-0.5898448729585052	-0.17251270763838214	1.6955188901263882	-0.5511012827955325	-0.16872035379052921	1.567529608058893	-0.5142472769338576	-0.211896793840188	1.533073496079963	-0.5399946232178986	-0.20012508816961527	1.538960125360233	-0.5524007317965737	-0.16451055025942432	1.5589012257210995	-0.5130540067640149	-1.8061324413153164	1.8916992446594123	1.2726174815889688	-0.1980907335180475	2.0452805340136053	-0.5737662305854556	-0.19422971732217878	1.976648063693171	-0.46274688376222856	-0.20969775695601128	1.890148747855494	-0.43263278446965353	-0.22970236028797858	1.8207111096314947	-0.43144970054735815	-0.15119718690602468	1.9819515721116934	-0.6167217405285711	-0.1453447730882559	1.9030120989803399	-0.6478956096395759	-0.18681405135217105	1.8416286885494337	-0.6303464556200377
73	2.433333333333333	-0.19114149649641135	1.8208221429072933	-0.524432978158498	-0.2044296472687259	1.8190810624957152	-0.46941062099119296	-0.1894687233871648	1.6943485569855827	-0.46128606451583176													-0.18122922228558813	1.822256510975802	-0.5870959110443769	-0.17146868725928024	1.6915788284745257	-0.5475103759397564	-0.16843847565028774	1.5657716522924274	-0.5145331319654382	-0.21215413682237436	1.5345878953637968	-0.5397471421329781	-0.20012923060839266	1.5390797235989189	-0.5524478435342585	-0.16431557863217996	1.5578456568881154	-0.5130527578163933	-1.7949447254183437	1.8897632495403847	1.2528596297139007	-0.19808549928924374	2.045433791295216	-0.5738062062361773	-0.19608518536290534	1.9751429203581485	-0.4602500120166555	-0.20949201548213417	1.8897131673977121	-0.43258950719264266	-0.22854337792283558	1.8183164324009677	-0.4365206050801148	-0.15007238376753052	1.9810197093075022	-0.6219631143527955	-0.14534365728963092	1.9030992111160834	-0.6480383935752791	-0.18731456512405786	1.8440240186696308	-0.6338585099679276
74	2.466666666666667	-0.191093878843189	1.8207898639708897	-0.5243199222515389	-0.20459777548099353	1.8178623168531454	-0.4690876086929707	-0.19082410758029933	1.690076008157338	-0.4594101297968289													-0.17750156207660242	1.8212078743227824	-0.5825912147998227	-0.1689465654198821	1.6938402038993128	-0.5506463748224617	-0.1683067613052816	1.5653423443669727	-0.5144928731649996	-0.21110666772758205	1.5346992469591003	-0.5451109064788584	-0.19814129403962305	1.5393213543010364	-0.5545883432707046	-0.16406385901262802	1.5563991284094376	-0.5132922523104954	-1.806062189231263	1.8917167367349057	1.2724822142129375	-0.19813512447166884	2.0454671617679145	-0.5737732847019096	-0.19607425779230592	1.975162071783906	-0.4601889504636438	-0.20974319841368735	1.8899252759686547	-0.4327087305631782	-0.22861019132426288	1.8145190446095856	-0.4363698787653265	-0.1491936201141508	1.9834981022037073	-0.6193171670580971	-0.143076105752803	1.9056143506772514	-0.6506043403690414	-0.18520032959490965	1.8466262594329876	-0.6364437020127813
75	2.5	-0.1929024113789485	1.822001511913643	-0.5224647546562834	-0.20448750840611335	1.8189987155987888	-0.4692997313142317	-0.19103742650851394	1.6911717908690393	-0.45931155074781094													-0.17808422706848293	1.8237058680573408	-0.586345831609911	-0.17039288680203582	1.69347416320604	-0.5447068564075565	-0.1681178186033907	1.5671154581762248	-0.5151994984524482	-0.21008198624522667	1.534822191515523	-0.5419222727567647	-0.19827610965131873	1.5405100362677777	-0.5542599836284007	-0.16361833542904308	1.5570493719498497	-0.5139869643912784	-1.7944749355737062	1.8897955342697648	1.252355335286978	-0.1980636279649564	2.0479830057876964	-0.5741578867476603	-0.1961087774565071	1.9751982972264979	-0.4602020248428784	-0.21072149789130296	1.8899495364026895	-0.43573451040557687	-0.23058490172839965	1.8160680149169701	-0.4342485697344774	-0.14991249378078775	1.982383645912644	-0.6219914189924953	-0.1412663579120826	1.9057057350875128	-0.6530475305038954	-0.18739273307830828	1.8466355353418544	-0.6342323585056161
76	2.533333333333333	-0.1929178259262002	1.8220644129448806	-0.5224658606235468	-0.2045992715943631	1.8203258273517167	-0.46955437620266555	-0.19138280235003247	1.6940309699430414	-0.45909155275669006													-0.17925506750181638	1.8235676866159913	-0.5808595346474886	-0.16943580131769478	1.6945473726765001	-0.5500483567022221	-0.16834974422245857	1.5657706095187418	-0.5145463597399428	-0.21010502898828515	1.534628431825033	-0.5418013148755755	-0.19828731539893507	1.540398240781737	-0.5541982211458151	-0.16425823079745205	1.5578367513249383	-0.5130670294422284	-1.7963776815246608	1.8916534139422274	1.2550520414133086	-0.19806944039606092	2.047997213810745	-0.5741934844380189	-0.19619035577230307	1.9765230120120652	-0.4605876120372201	-0.2097340001515939	1.8899412109572884	-0.43272742685075005	-0.22859372977836898	1.8188013855706036	-0.4368119059086576	-0.14923271937571386	1.98233818647005	-0.6193834965600225	-0.14090224670250914	1.905923575133014	-0.6530005348509746	-0.1859146676953887	1.8489429430554556	-0.6399332728345862
77	2.566666666666667	-0.1908654054353939	1.8218508791231867	-0.524591558165847	-0.2024585422112473	1.8214571643051725	-0.4718389196275675	-0.18948268585665945	1.6945777656706438	-0.46125556370536386													-0.1771007861470017	1.823436328851669	-0.5831163793822564	-0.1694357395948339	1.694639318295466	-0.5501667322255168	-0.1684273822258852	1.5658768592148165	-0.5145515315372383	-0.21213140799285607	1.5343045452111146	-0.5396673874004482	-0.20059640456457284	1.5388467487341644	-0.5514706095213108	-0.16425307709631584	1.5576923744023647	-0.513085608532477	-1.7943050453552913	1.889784900312924	1.252047444663503	-0.19810194323265612	2.0480212079102236	-0.5742048174932991	-0.19424413666134815	1.9766644340610924	-0.4628272534309276	-0.20953776192442333	1.8914203494211008	-0.43287050197395355	-0.22878498014060353	1.8214817934525265	-0.43691703509027013	-0.1498588006947442	1.9823734581557557	-0.6220710734932297	-0.13896763029509202	1.9046256966940602	-0.6551966138860277	-0.18693493991439386	1.8501265777047005	-0.6432034042740102
